<?xml version="1.0" standalone="no"?>
<!DOCTYPE svg PUBLIC "-//W3C//DTD SVG 20010904//EN"
 "http://www.w3.org/TR/2001/REC-SVG-20010904/DTD/svg10.dtd">
<svg version="1.0" xmlns="http://www.w3.org/2000/svg"
 width="978.000000pt" height="978.000000pt" viewBox="0 0 978.000000 978.000000"
 preserveAspectRatio="xMidYMid meet">
<metadata>
Created by potrace 1.11, written by Peter Selinger 2001-2013
</metadata>
<g transform="translate(0.000000,978.000000) scale(0.100000,-0.100000)"
fill="#000000" stroke="none">
<path d="M4667 9534 c-4 -4 -39 -8 -79 -10 -68 -2 -161 -10 -233 -18 -16 -2
-55 -7 -85 -10 -73 -8 -313 -52 -420 -77 -107 -26 -115 -28 -142 -35 -13 -3
-32 -7 -43 -9 -11 -2 -22 -4 -25 -5 -3 -1 -8 -2 -12 -1 -5 0 -8 -3 -8 -8 0 -5
-8 -8 -17 -6 -10 1 -27 -2 -38 -8 -20 -11 -23 -12 -64 -21 -32 -7 -118 -35
-156 -51 -65 -27 -225 -87 -230 -86 -2 0 -21 -8 -40 -19 -20 -11 -42 -20 -50
-20 -7 0 -20 -6 -27 -12 -7 -7 -20 -14 -28 -16 -13 -3 -112 -52 -335 -166 -22
-11 -42 -23 -45 -27 -3 -4 -17 -13 -30 -18 -28 -12 -63 -33 -70 -42 -3 -4 -21
-15 -40 -25 -19 -11 -49 -29 -67 -41 -17 -13 -34 -23 -37 -23 -10 0 -220 -151
-234 -168 -7 -10 -15 -15 -17 -12 -2 3 -16 -6 -32 -20 -15 -14 -33 -27 -39
-30 -12 -5 -56 -42 -209 -175 -69 -60 -343 -334 -400 -400 -27 -31 -60 -68
-72 -81 -13 -13 -23 -27 -23 -31 0 -5 -11 -17 -25 -27 -14 -10 -25 -24 -25
-30 0 -6 -9 -17 -20 -24 -11 -7 -20 -18 -20 -26 0 -8 -7 -17 -16 -20 -8 -3
-12 -10 -9 -16 3 -5 2 -10 -3 -10 -5 0 -48 -55 -96 -122 -48 -68 -93 -130
-101 -140 -7 -9 -11 -18 -9 -21 2 -2 -6 -15 -18 -29 -13 -14 -24 -32 -26 -39
-2 -8 -8 -19 -13 -25 -22 -26 -109 -178 -109 -190 0 -7 -4 -14 -9 -16 -5 -1
-45 -77 -90 -168 -45 -91 -88 -178 -96 -193 -8 -16 -13 -33 -9 -38 3 -5 1 -9
-4 -9 -5 0 -13 -10 -17 -22 -4 -13 -8 -25 -10 -28 -1 -3 -5 -14 -9 -25 -5 -11
-21 -51 -36 -90 -48 -120 -100 -277 -95 -285 3 -5 1 -11 -5 -15 -6 -4 -8 -11
-5 -16 4 -5 1 -9 -5 -9 -6 0 -9 -4 -5 -9 3 -5 1 -12 -4 -16 -5 -3 -8 -14 -6
-25 2 -11 0 -20 -4 -20 -4 0 -8 -6 -9 -12 0 -7 -3 -24 -7 -38 -4 -14 -7 -31
-7 -37 -1 -7 -4 -13 -7 -13 -3 0 -7 -17 -8 -37 -1 -20 -5 -39 -10 -42 -4 -3
-9 -17 -11 -31 -1 -14 -14 -78 -27 -143 -22 -104 -52 -285 -54 -327 0 -8 -3
-31 -6 -50 -3 -19 -8 -64 -10 -100 -2 -36 -4 -65 -6 -65 -5 0 -12 -153 -16
-367 -2 -126 0 -228 4 -228 4 0 8 -33 7 -72 -1 -40 1 -77 4 -82 4 -7 12 -102
13 -156 1 -8 3 -22 6 -30 3 -8 7 -31 8 -50 6 -83 34 -243 77 -430 17 -74 31
-139 33 -145 1 -5 5 -17 8 -25 5 -15 18 -62 23 -91 2 -9 9 -29 15 -45 7 -16
12 -32 11 -36 -2 -8 59 -181 98 -278 12 -30 22 -62 23 -70 1 -8 6 -18 11 -22
5 -3 10 -15 11 -26 1 -11 7 -27 13 -35 7 -8 14 -24 16 -34 2 -10 13 -36 25
-56 11 -20 21 -39 21 -42 -1 -13 143 -291 153 -297 7 -4 8 -8 3 -8 -4 0 -1
-11 8 -25 25 -39 55 -89 63 -105 3 -8 9 -17 13 -20 9 -8 64 -105 61 -108 -1
-2 6 -10 16 -18 10 -7 15 -14 11 -14 -4 0 -1 -8 6 -17 8 -10 56 -76 107 -148
51 -71 98 -135 103 -141 6 -7 20 -24 31 -40 11 -15 32 -41 47 -56 16 -16 28
-31 28 -35 0 -3 12 -18 28 -34 15 -15 43 -46 62 -69 52 -60 329 -338 389 -390
29 -25 65 -56 80 -70 15 -14 47 -41 71 -60 23 -19 47 -40 54 -45 75 -68 501
-355 526 -355 5 0 10 -4 10 -10 0 -5 11 -12 25 -16 14 -3 25 -10 25 -16 0 -5
4 -6 10 -3 6 3 10 3 10 -2 0 -4 10 -13 23 -19 12 -6 94 -47 183 -92 136 -69
197 -98 224 -107 3 -1 19 -7 35 -14 17 -7 32 -13 35 -13 3 0 14 -5 25 -11 11
-6 22 -12 25 -12 6 0 64 -23 105 -40 45 -20 203 -74 228 -79 12 -2 41 -11 65
-20 23 -8 43 -15 45 -15 1 1 22 -4 47 -11 25 -7 53 -14 62 -16 10 -2 27 -6 38
-9 45 -11 60 -15 172 -39 103 -23 334 -63 378 -65 8 -1 31 -3 50 -6 19 -3 64
-7 100 -9 36 -3 67 -6 70 -7 3 -1 34 -3 70 -4 36 -1 72 -5 81 -9 18 -8 407 -2
529 7 118 9 182 15 225 21 22 2 65 8 95 11 30 4 116 18 190 32 74 13 144 26
155 27 11 2 27 6 35 9 17 6 183 47 219 53 14 3 29 8 35 12 6 3 21 7 33 8 12 0
29 6 37 13 8 7 20 10 26 6 5 -3 10 -1 10 5 0 6 4 9 9 6 9 -6 128 32 261 85 47
18 87 34 90 34 14 4 67 26 82 35 10 6 25 10 33 10 8 0 15 5 15 10 0 6 3 9 8 8
15 -3 264 118 392 191 30 17 63 34 73 37 9 4 17 10 17 14 0 4 11 11 25 14 14
4 25 11 25 16 0 6 5 10 10 10 6 0 23 8 38 19 15 10 68 44 117 76 113 73 353
250 381 281 12 13 24 24 28 24 4 0 17 10 30 22 13 13 42 39 65 58 79 66 458
450 445 450 -3 0 7 13 22 28 16 15 45 47 64 71 19 24 41 49 48 56 6 8 12 16
12 20 0 3 9 16 20 27 11 12 59 76 106 143 47 66 91 127 99 137 7 9 11 18 9 21
-2 2 7 16 20 30 14 15 23 27 20 27 -2 0 25 48 61 106 36 58 66 111 68 117 1 7
5 14 9 17 9 7 165 320 170 340 2 8 7 18 11 21 5 3 9 12 10 20 2 8 6 20 10 26
5 7 5 13 0 13 -4 0 -2 4 5 8 7 5 14 18 17 30 2 12 7 28 12 35 4 6 8 19 10 27
1 8 7 16 13 18 5 2 8 8 5 12 -3 5 6 37 21 72 33 78 84 228 78 228 -2 0 2 13
11 30 8 16 15 33 14 37 -1 4 -1 10 1 13 1 3 4 16 6 30 3 13 9 29 14 34 4 4 6
15 3 22 -3 8 -1 14 4 14 5 0 9 10 10 23 1 12 3 31 6 42 15 53 68 302 72 334 3
20 9 56 14 81 5 25 12 70 15 100 4 30 10 78 13 105 3 28 7 74 7 103 0 28 4 52
7 52 4 0 6 34 5 75 -1 41 2 75 6 75 5 0 8 99 8 220 0 121 -3 220 -8 220 -4 0
-7 34 -6 75 1 42 -2 77 -5 80 -4 2 -6 21 -4 42 1 21 0 45 -3 53 -3 8 -7 33 -9
55 -9 151 -54 389 -131 698 -3 12 -7 29 -9 37 -2 8 -4 15 -5 15 -1 0 -4 13 -6
30 -3 16 -11 33 -17 37 -7 4 -8 8 -3 8 5 0 3 6 -3 13 -6 8 -9 16 -6 19 5 4
-35 132 -54 173 -5 11 -15 37 -21 58 -7 22 -18 51 -26 65 -7 14 -11 29 -8 34
3 4 1 8 -3 8 -5 0 -17 25 -28 55 -10 30 -22 55 -26 55 -5 0 -6 7 -3 15 4 8 1
15 -5 15 -6 0 -10 3 -9 8 1 4 -4 21 -11 37 -17 41 -145 299 -152 305 -3 3 -13
22 -23 43 -10 21 -31 58 -47 82 -16 23 -29 48 -29 54 0 6 -3 11 -8 11 -4 0
-16 17 -27 38 -10 20 -26 45 -34 55 -8 9 -11 17 -8 17 4 0 0 8 -8 18 -8 9 -51
70 -95 134 -45 64 -92 128 -105 142 -14 15 -24 29 -24 32 1 6 -57 79 -88 110
-13 13 -23 26 -23 29 0 3 -8 13 -17 23 -10 10 -43 47 -73 82 -63 71 -336 345
-406 405 -25 22 -60 52 -77 67 -18 15 -41 37 -53 48 -12 11 -26 20 -33 20 -6
0 -11 4 -11 9 0 5 -62 53 -137 108 -184 134 -221 158 -418 276 -11 7 -32 20
-47 30 -14 9 -33 17 -41 17 -9 0 -17 4 -19 9 -3 9 -259 140 -338 174 -19 8
-56 24 -82 36 -26 11 -50 21 -52 21 -2 0 -21 8 -42 17 -22 9 -41 17 -44 18 -3
1 -14 5 -25 9 -111 43 -225 83 -266 92 -13 3 -28 6 -34 8 -5 1 -21 8 -35 16
-14 7 -27 12 -30 11 -6 -2 -136 27 -160 36 -19 8 -7 5 -205 46 -158 33 -208
41 -310 52 -22 2 -52 7 -68 10 -15 3 -58 7 -95 9 -38 1 -73 5 -78 8 -5 3 -42
5 -81 4 -40 -1 -73 1 -73 6 0 9 -434 11 -443 2z m504 -329 c147 -11 300 -27
364 -38 17 -3 50 -9 75 -12 25 -4 54 -9 65 -12 11 -2 36 -7 55 -9 19 -3 42 -8
50 -11 8 -3 28 -7 44 -9 49 -7 384 -99 436 -121 8 -3 17 -7 20 -8 26 -7 62
-19 95 -32 22 -8 49 -19 60 -23 306 -118 637 -291 880 -459 93 -64 109 -76
200 -145 206 -159 490 -422 612 -568 29 -35 63 -75 77 -89 13 -14 69 -86 125
-160 55 -74 104 -139 108 -144 12 -15 95 -141 135 -205 19 -30 50 -82 67 -115
18 -33 37 -64 41 -70 41 -51 267 -553 283 -630 2 -5 6 -15 9 -21 4 -6 9 -21
12 -35 3 -13 12 -43 21 -67 43 -120 133 -484 150 -609 3 -21 7 -53 10 -70 14
-95 26 -189 30 -239 1 -17 5 -36 9 -42 4 -7 2 -12 -4 -12 -6 0 -9 -4 -6 -9 3
-5 8 -30 11 -57 6 -54 6 -509 1 -589 -6 -82 -22 -235 -32 -295 -2 -14 -6 -45
-9 -70 -3 -25 -7 -54 -10 -65 -2 -11 -6 -29 -8 -40 -2 -11 -8 -38 -12 -60 -4
-22 -9 -51 -11 -64 -16 -85 -101 -402 -121 -451 -3 -8 -7 -20 -8 -26 -7 -29
-49 -140 -57 -151 -6 -7 -8 -13 -5 -13 5 0 -29 -88 -68 -175 -90 -202 -123
-267 -207 -415 -76 -134 -79 -139 -105 -177 -13 -17 -23 -35 -23 -38 0 -4 -25
-41 -54 -83 -30 -43 -72 -101 -93 -131 -21 -30 -42 -59 -48 -65 -5 -6 -26 -32
-45 -56 -53 -69 -60 -77 -134 -164 -109 -127 -359 -372 -498 -487 -133 -110
-390 -299 -408 -299 -5 0 -10 -3 -10 -8 0 -4 -17 -16 -37 -27 -21 -11 -40 -22
-43 -25 -4 -5 -60 -38 -187 -111 -65 -37 -118 -63 -125 -61 -5 1 -8 -2 -8 -7
0 -8 -37 -24 -52 -22 -5 1 -8 -3 -8 -9 0 -5 -4 -10 -9 -10 -5 0 -38 -13 -73
-29 -35 -16 -83 -38 -108 -49 -51 -23 -227 -92 -234 -92 -3 0 -17 -5 -33 -12
-15 -6 -34 -12 -41 -14 -8 -1 -21 -6 -30 -10 -9 -4 -21 -8 -27 -9 -5 -2 -64
-19 -130 -38 -112 -34 -244 -67 -325 -82 -50 -9 -72 -13 -100 -19 -28 -7 -92
-17 -135 -22 -16 -2 -41 -6 -55 -8 -13 -3 -54 -9 -90 -12 -36 -4 -78 -8 -95
-10 -132 -15 -536 -21 -690 -9 -177 13 -302 26 -373 40 -15 3 -43 8 -62 10
-40 6 -91 16 -205 40 -108 23 -403 105 -437 122 -15 7 -29 13 -30 12 -7 -2
-67 16 -103 31 -56 24 -78 33 -91 35 -24 6 -234 100 -338 152 -139 69 -317
171 -425 242 -46 31 -91 61 -101 66 -44 26 -337 255 -415 324 -95 85 -339 334
-422 431 -129 152 -323 416 -360 490 -4 8 -14 23 -22 32 -9 9 -25 34 -36 55
-10 21 -33 61 -50 88 -17 28 -53 93 -79 145 -27 52 -52 99 -57 105 -5 5 -9 17
-9 26 0 10 -3 19 -8 21 -7 3 -93 199 -132 303 -12 33 -26 69 -30 80 -48 111
-158 518 -174 636 -2 19 -7 41 -10 49 -4 14 -13 65 -21 135 -2 17 -6 44 -9 61
-10 53 -18 116 -22 174 -2 30 -6 84 -9 120 -12 157 -6 555 10 700 16 151 21
189 29 240 2 14 7 45 11 70 14 102 70 344 107 470 22 74 41 140 43 145 2 9 6
22 22 63 3 9 7 19 8 22 11 43 91 242 146 365 12 28 23 52 24 55 2 13 119 237
141 271 13 21 24 40 24 43 0 2 18 33 40 67 22 35 48 79 57 97 9 17 20 32 25
32 4 0 8 5 8 11 0 6 17 34 37 63 72 101 168 231 173 236 3 3 41 50 85 105 77
96 370 398 466 480 101 87 146 124 258 207 64 48 121 91 126 95 45 34 185 123
194 123 6 0 11 5 11 10 0 6 5 10 12 10 6 0 19 6 27 14 9 7 39 26 66 41 28 15
85 47 128 71 42 23 77 40 77 36 0 -4 4 -2 8 3 7 10 137 76 157 81 6 1 42 16
80 34 116 53 380 151 448 165 9 2 21 6 26 9 10 6 310 83 356 91 17 2 41 7 55
10 46 10 107 20 175 30 23 3 50 7 60 9 27 5 142 18 185 21 19 1 35 3 35 4 0 1
72 5 160 8 88 3 161 6 162 7 3 3 265 -4 334 -9z"/>
<path d="M4706 7673 c-1 -2 -159 -5 -350 -7 -191 -2 -350 -7 -353 -9 -2 -3
-17 -1 -33 3 -16 4 -31 5 -35 2 -3 -4 -113 -7 -243 -9 -227 -2 -413 -5 -1182
-19 -190 -3 -364 -7 -388 -7 -23 0 -39 -4 -35 -8 8 -8 206 -157 390 -294 60
-44 110 -82 113 -85 3 -3 32 -25 65 -49 33 -25 62 -47 65 -50 3 -3 12 -10 22
-16 15 -9 717 -537 745 -560 7 -5 19 -16 27 -22 8 -7 19 -13 25 -13 5 0 11 -4
13 -8 2 -5 41 -37 88 -73 47 -35 90 -67 95 -72 6 -4 71 -53 145 -109 74 -55
146 -109 160 -119 14 -11 88 -66 165 -124 77 -58 148 -112 158 -120 9 -8 21
-15 26 -15 5 0 11 -3 13 -8 5 -11 137 -112 147 -112 5 0 11 -4 13 -8 3 -10
524 -402 532 -402 3 0 4 24 1 53 -2 28 -7 95 -10 147 -3 52 -7 122 -10 155 -2
33 -7 105 -10 160 -4 55 -8 123 -10 150 -2 28 -7 102 -11 165 -4 63 -8 133
-10 155 -2 36 -11 183 -19 325 -2 30 -6 96 -10 145 -3 50 -8 117 -10 150 -2
33 -7 101 -10 150 -4 50 -9 128 -11 175 -3 47 -7 117 -9 155 -3 39 -6 103 -9
143 -2 40 -7 76 -10 80 -6 6 -234 10 -240 5z"/>
<path d="M5006 7623 c3 -21 6 -69 8 -108 5 -72 12 -190 19 -305 3 -36 7 -110
10 -165 4 -55 9 -131 12 -170 14 -173 56 -819 60 -905 2 -52 6 -106 9 -120 3
-14 8 -83 10 -155 3 -71 6 -132 7 -135 2 -5 6 -73 12 -200 2 -42 6 -80 9 -85
3 -6 5 -43 6 -83 0 -41 3 -76 6 -79 6 -6 86 70 86 81 0 4 27 32 60 63 33 32
60 61 60 65 0 4 28 36 63 70 75 76 78 80 645 690 248 268 452 492 452 497 0 5
-17 20 -37 32 -21 13 -40 26 -43 29 -3 3 -27 22 -55 41 -27 18 -51 37 -53 42
-2 4 -9 7 -15 7 -6 0 -20 8 -31 19 -12 10 -53 41 -92 67 -186 128 -299 207
-304 213 -3 3 -12 11 -21 16 -9 6 -67 46 -129 90 -62 44 -131 93 -154 109 -22
15 -106 74 -186 129 -80 56 -149 107 -153 114 -5 8 -12 11 -18 8 -5 -4 -9 -2
-9 3 0 5 -16 17 -35 28 -19 10 -35 22 -35 26 0 5 -4 8 -9 8 -6 0 -22 11 -37
25 -15 14 -33 25 -40 25 -8 0 -14 4 -14 8 0 7 -52 42 -63 42 -3 0 -3 -17 -1
-37z"/>
<path d="M2226 7444 c38 -36 145 -138 238 -227 224 -215 280 -268 441 -422 75
-71 169 -161 209 -200 40 -38 136 -131 214 -205 79 -74 178 -169 221 -210 43
-41 151 -145 240 -230 89 -85 188 -179 220 -210 173 -166 430 -411 476 -455
37 -35 100 -74 211 -131 88 -45 204 -105 258 -133 55 -28 100 -50 101 -49 2 2
19 29 39 61 34 53 41 87 26 127 -3 7 -6 37 -8 76 -2 32 16 17 -382 319 -80 61
-199 152 -265 203 -66 51 -255 195 -420 321 -345 263 -416 317 -430 329 -5 4
-77 59 -160 122 -288 219 -400 304 -405 310 -3 3 -30 23 -60 45 -30 22 -57 42
-60 45 -3 4 -66 52 -140 109 -74 56 -142 108 -150 115 -9 6 -42 32 -75 56 -33
25 -66 50 -75 57 -8 7 -78 60 -155 119 -77 59 -141 111 -143 115 -2 5 -11 9
-20 9 -9 0 13 -27 54 -66z"/>
<path d="M7709 6646 c-2 -2 -42 -7 -89 -10 -47 -4 -105 -9 -130 -11 -49 -5
-97 -10 -230 -20 -47 -4 -94 -9 -105 -11 -11 -3 -64 -6 -118 -9 -54 -3 -102
-7 -106 -9 -3 -2 -47 -7 -96 -10 -50 -4 -99 -8 -110 -10 -11 -3 -40 -5 -65 -5
-47 -1 -41 4 -167 -136 -6 -5 7 -34 32 -70 81 -118 190 -278 205 -300 43 -65
116 -171 123 -180 7 -9 264 -389 320 -472 12 -18 26 -32 30 -30 6 2 55 108 55
120 0 1 5 13 11 27 16 37 131 323 135 335 3 10 22 58 33 85 3 8 5 18 5 23 -1
4 2 7 8 7 6 0 9 3 8 8 -1 4 4 23 11 42 8 19 15 37 16 40 8 21 21 52 38 90 11
25 21 47 22 50 8 29 20 62 35 95 10 22 23 59 30 83 7 23 17 42 22 42 5 0 8 6
7 13 -1 6 3 23 8 37 59 138 80 204 62 186z"/>
<path d="M7757 6613 c-12 -20 -90 -229 -90 -240 0 -7 -4 -13 -9 -13 -4 0 -7
-3 -6 -7 0 -5 -2 -15 -5 -23 -8 -18 -23 -61 -28 -75 -1 -5 -29 -75 -61 -154
-58 -145 -61 -171 -22 -171 8 0 14 -5 14 -11 0 -5 4 -8 9 -4 5 3 12 1 16 -5 3
-6 23 -18 43 -28 20 -10 53 -28 72 -39 19 -11 60 -34 90 -52 30 -17 62 -36 70
-41 8 -6 32 -17 53 -26 20 -9 37 -20 37 -25 0 -5 7 -9 16 -9 12 0 15 6 11 23
-2 12 -18 85 -36 162 -17 77 -32 149 -34 160 -2 11 -9 38 -15 61 -7 22 -13 53
-16 70 -2 16 -6 36 -9 44 -3 8 -8 29 -11 45 -5 29 -9 48 -21 105 -4 14 -8 36
-11 50 -3 14 -7 32 -9 40 -2 8 -4 15 -5 15 -1 0 -3 9 -4 20 -5 38 -27 135 -31
135 -2 0 -6 -3 -8 -7z"/>
<path d="M6388 6334 c-23 -26 -65 -71 -93 -100 -27 -29 -88 -94 -135 -145 -47
-50 -110 -118 -140 -149 -30 -32 -95 -102 -145 -155 -49 -54 -117 -126 -150
-161 -33 -35 -91 -96 -128 -136 -37 -40 -96 -103 -130 -139 -34 -37 -100 -107
-147 -158 -47 -50 -112 -120 -145 -155 -33 -35 -91 -96 -129 -137 -37 -41 -96
-103 -131 -139 -34 -36 -277 -297 -541 -580 -263 -283 -505 -544 -539 -580
-159 -170 -215 -229 -277 -293 -38 -38 -68 -71 -68 -73 0 -3 -29 -35 -64 -72
-141 -146 -196 -207 -196 -214 0 -9 30 1 50 17 8 7 85 52 170 101 85 48 157
91 160 94 3 4 19 13 35 22 28 14 119 67 500 293 83 49 164 96 180 105 17 9 48
28 70 42 23 14 63 38 90 52 54 29 83 46 99 59 6 5 61 37 121 72 61 35 115 68
120 73 6 4 12 8 15 8 3 0 56 30 118 67 62 37 116 67 121 67 5 0 11 4 13 8 2 4
71 47 153 95 83 49 159 94 170 100 11 7 23 16 26 20 3 5 8 7 10 5 2 -1 43 21
91 50 48 28 91 52 97 52 5 0 11 4 13 8 2 5 28 22 58 39 52 29 104 60 188 111
20 12 45 25 55 28 9 4 17 10 17 14 0 5 12 13 28 19 15 6 43 21 62 32 19 12 89
53 155 92 66 39 123 74 126 79 3 6 10 10 15 10 19 1 54 22 54 31 0 6 3 7 7 4
3 -4 13 -1 22 7 13 11 164 101 297 176 17 10 42 24 55 32 13 7 29 19 37 26 7
6 17 12 22 12 5 0 29 14 53 30 25 17 50 30 55 30 6 0 17 6 24 13 7 7 45 30 83
51 39 22 82 48 98 58 l27 19 -47 67 c-26 37 -52 70 -58 74 -6 5 -6 8 0 8 6 0
2 5 -8 11 -9 6 -15 14 -12 20 4 5 1 9 -4 9 -6 0 -11 7 -11 15 0 8 -4 15 -10
15 -5 0 -10 6 -10 14 0 8 -3 16 -8 18 -9 4 -82 103 -82 112 0 3 -6 14 -14 23
-8 10 -58 83 -112 163 -54 80 -101 147 -106 148 -4 2 -8 8 -8 13 0 10 -73 120
-101 151 -9 10 -22 31 -30 46 -8 15 -20 33 -27 40 -6 8 -17 22 -23 33 -5 11
-27 44 -49 75 l-38 55 -44 -47z"/>
<path d="M4365 5054 c-66 -91 -125 -170 -131 -177 -9 -11 -284 -380 -368 -495
-17 -23 -38 -51 -46 -61 -8 -11 -22 -29 -30 -41 -14 -20 -178 -241 -197 -265
-9 -10 -155 -208 -355 -480 -64 -88 -124 -167 -131 -175 -8 -8 -23 -28 -33
-45 -10 -16 -27 -39 -36 -50 -19 -23 -285 -382 -308 -415 -8 -13 -21 -28 -27
-36 -27 -27 -14 -35 45 -30 31 3 111 8 177 11 l120 6 65 68 c58 61 237 250
335 356 21 22 69 74 108 115 135 143 281 299 497 530 79 85 172 184 206 220
69 73 95 101 245 261 57 62 124 133 149 159 25 26 97 103 160 171 63 67 141
150 172 183 32 34 58 64 58 67 0 4 -39 27 -87 51 -216 110 -305 157 -319 168
-8 7 -14 9 -14 6 0 -4 -12 1 -27 12 -26 17 -97 52 -105 52 -1 -1 -57 -75 -123
-166z"/>
<path d="M7035 5114 c-88 -52 -168 -98 -177 -101 -10 -3 -18 -10 -18 -15 0 -5
-4 -7 -9 -4 -5 4 -11 2 -13 -2 -1 -5 -15 -15 -30 -23 -15 -8 -78 -44 -140 -80
-62 -37 -130 -76 -150 -87 -20 -12 -54 -32 -75 -45 -21 -13 -45 -27 -53 -30
-8 -4 -27 -15 -42 -25 -25 -16 -106 -64 -173 -102 -200 -114 -661 -386 -663
-392 -2 -4 -8 -8 -14 -8 -5 0 -73 -38 -151 -83 -78 -46 -257 -150 -397 -232
-140 -81 -274 -159 -296 -174 -23 -14 -49 -30 -59 -36 -11 -7 -18 -28 -21 -70
-2 -33 -6 -85 -9 -115 -3 -30 -8 -111 -11 -180 -3 -69 -8 -128 -11 -132 -2 -5
-1 -13 2 -18 6 -10 33 3 150 70 22 13 60 34 85 48 25 14 61 34 80 45 19 11 60
33 90 50 30 17 67 39 83 49 15 11 27 16 27 11 0 -4 4 -3 8 2 4 6 70 46 147 90
77 43 167 94 200 113 33 19 80 46 105 60 87 48 325 183 340 192 18 11 132 77
180 103 19 11 96 54 170 96 74 43 142 80 150 84 8 4 29 15 45 26 25 15 313
178 380 215 11 6 22 14 25 17 3 3 25 15 50 28 25 12 113 61 195 109 127 74
150 91 152 112 3 56 13 530 10 530 -1 -1 -74 -44 -162 -96z"/>
<path d="M4431 3610 c-35 -23 -111 -69 -169 -102 -59 -34 -109 -65 -112 -68
-3 -3 -16 -11 -30 -18 -14 -7 -38 -21 -55 -32 -16 -11 -38 -23 -47 -26 -10 -4
-18 -10 -18 -14 0 -5 -6 -10 -12 -12 -20 -5 -342 -200 -350 -212 -4 -6 -8 -8
-8 -4 0 4 -30 -11 -68 -35 -76 -48 -89 -56 -152 -93 -25 -15 -68 -42 -97 -60
-28 -19 -56 -34 -62 -34 -6 0 -11 -4 -11 -10 0 -5 -6 -10 -14 -10 -8 0 -21 -6
-28 -12 -7 -7 -35 -24 -61 -38 -26 -13 -47 -27 -47 -30 0 -3 15 -23 32 -45 18
-22 36 -44 41 -50 4 -5 17 -22 30 -36 12 -14 33 -40 47 -59 14 -18 30 -38 35
-44 6 -6 118 -146 250 -311 268 -335 273 -341 298 -367 9 -10 15 -18 12 -18
-3 0 4 -11 17 -24 25 -26 36 -39 88 -106 19 -25 42 -50 50 -57 8 -7 11 -13 7
-13 -4 0 4 -11 19 -25 15 -14 24 -25 21 -25 -3 0 4 -10 16 -23 12 -13 31 -34
42 -48 11 -13 40 -48 63 -77 24 -28 41 -52 37 -52 -4 0 4 -9 19 -21 14 -11 24
-25 21 -30 -4 -5 -2 -9 3 -9 4 0 37 -36 72 -80 35 -43 67 -77 70 -74 3 3 6 38
8 77 1 40 5 124 8 187 3 63 6 156 8 205 2 50 5 90 6 90 1 0 4 41 6 90 4 103
11 247 19 385 12 240 15 300 16 375 1 44 4 84 6 88 5 9 13 208 13 305 -1 34 2
67 5 73 4 5 8 56 10 112 1 56 6 182 10 280 4 97 5 177 3 177 -3 0 -33 -18 -67
-40z"/>
<path d="M2897 2763 c-1 -1 -49 -4 -106 -7 -58 -4 -106 -8 -108 -10 -3 -3 94
-100 143 -143 12 -10 81 -74 154 -143 73 -69 141 -132 150 -140 16 -14 187
-173 345 -321 38 -37 84 -79 100 -94 17 -14 79 -72 138 -128 139 -130 172
-161 297 -277 56 -52 123 -115 149 -140 131 -125 136 -123 28 10 -38 47 -83
103 -100 124 -18 22 -46 56 -63 75 -17 20 -66 81 -110 136 -43 55 -81 102 -84
105 -3 3 -25 30 -50 60 -25 30 -47 57 -50 60 -3 3 -41 50 -85 105 -43 55 -85
106 -92 113 -7 8 -26 30 -41 50 -15 21 -29 39 -32 42 -3 3 -62 75 -130 160
-69 85 -127 157 -130 160 -3 3 -43 51 -89 108 l-82 102 -75 -2 c-42 -2 -76 -4
-77 -5z"/>
</g>
</svg>
